<svg id="Layer_1" data-name="Layer 1" xmlns="http://www.w3.org/2000/svg" viewBox="0 0 265.89 55.94"><defs><style>.cls-1{fill:#e43238;}.cls-2{fill:#3366b1;}.cls-3{fill:#f3ad1d;}.cls-4{fill:#86b940;}</style></defs><title>ebangazon</title><path class="cls-1" d="M19.06,32.7,26.71,34a12.52,12.52,0,0,1-4.66,6.42,13.74,13.74,0,0,1-8,2.2q-7.58,0-11.21-5A16.65,16.65,0,0,1,0,27.64q0-7.22,3.77-11.31a12.46,12.46,0,0,1,9.55-4.09q6.48,0,10.22,4.28t3.58,13.12H7.88A7.73,7.73,0,0,0,9.73,35a5.83,5.83,0,0,0,4.43,1.9,4.68,4.68,0,0,0,3-1A6.09,6.09,0,0,0,19.06,32.7Zm.44-7.77a7.4,7.4,0,0,0-1.73-5.07,5.27,5.27,0,0,0-4-1.74A5.33,5.33,0,0,0,9.62,20a7.09,7.09,0,0,0-1.61,5Z"/><path class="cls-2" d="M30.26,41.94V1.85h7.68V16.29a10.87,10.87,0,0,1,8.42-4,11.33,11.33,0,0,1,8.78,3.85q3.48,3.84,3.47,11,0,7.44-3.54,11.46a11,11,0,0,1-8.6,4,10.59,10.59,0,0,1-4.9-1.25,11.63,11.63,0,0,1-4.17-3.67v4.26Zm7.63-15.15q0,4.52,1.42,6.67a6.07,6.07,0,0,0,5.3,3.07A5.45,5.45,0,0,0,49,34.35q1.78-2.18,1.79-6.85c0-3.31-.6-5.71-1.81-7.17a5.7,5.7,0,0,0-4.62-2.21,5.79,5.79,0,0,0-4.59,2.15C38.5,21.7,37.89,23.88,37.89,26.79Z"/><path class="cls-3" d="M67.74,21.76l-7-1.26a10.93,10.93,0,0,1,4.05-6.23c1.91-1.35,4.76-2,8.53-2q5.14,0,7.66,1.22a7.64,7.64,0,0,1,3.54,3.09q1,1.88,1,6.88l-.08,9A31.61,31.61,0,0,0,85.85,38a16.67,16.67,0,0,0,1.38,3.9h-7.6c-.2-.51-.45-1.27-.74-2.27q-.19-.68-.27-.9a13.84,13.84,0,0,1-4.21,2.87,12.05,12.05,0,0,1-4.79,1,9.88,9.88,0,0,1-7.07-2.44A8.09,8.09,0,0,1,60,34a8.22,8.22,0,0,1,1.18-4.39,7.67,7.67,0,0,1,3.29-2.95,25.88,25.88,0,0,1,6.11-1.79A42.83,42.83,0,0,0,78,23v-.76a4,4,0,0,0-1.1-3.16c-.73-.63-2.1-.95-4.13-.95a5.45,5.45,0,0,0-3.19.81A5.56,5.56,0,0,0,67.74,21.76ZM78,28c-1,.32-2.55.72-4.68,1.17a14.06,14.06,0,0,0-4.18,1.34,3.21,3.21,0,0,0-1.51,2.71A3.77,3.77,0,0,0,68.86,36a4.2,4.2,0,0,0,3.06,1.17,6.64,6.64,0,0,0,4-1.36,4.89,4.89,0,0,0,1.84-2.55,15.12,15.12,0,0,0,.3-3.74Z"/><path class="cls-4" d="M116.75,41.94h-7.68V27.12a23.24,23.24,0,0,0-.49-6.08,4.34,4.34,0,0,0-1.6-2.15,4.59,4.59,0,0,0-2.67-.77,6.16,6.16,0,0,0-3.58,1.1,5.53,5.53,0,0,0-2.18,2.9A25.17,25.17,0,0,0,98,28.79V41.94H90.28v-29h7.14v4.27a11.88,11.88,0,0,1,14.22-4,7.77,7.77,0,0,1,3.18,2.34,8.57,8.57,0,0,1,1.51,3.23,24.12,24.12,0,0,1,.42,5.16Z"/><path class="cls-1" d="M121,43.85l8.78,1.07a3,3,0,0,0,1,2.11,5.84,5.84,0,0,0,3.45.82,8.85,8.85,0,0,0,4.51-.91A3.72,3.72,0,0,0,140.31,45a11.49,11.49,0,0,0,.36-3.52V37.24a10.42,10.42,0,0,1-8.7,4.7A10.71,10.71,0,0,1,122.7,37,16.87,16.87,0,0,1,120,27.26q0-7.31,3.52-11.16a11.33,11.33,0,0,1,8.73-3.86A10.63,10.63,0,0,1,141.16,17V12.9h7.19V39a25.72,25.72,0,0,1-.85,7.68,9.5,9.5,0,0,1-2.38,4A10.64,10.64,0,0,1,141,52.91a21.78,21.78,0,0,1-6.47.82q-7.38,0-10.47-2.53A8,8,0,0,1,121,44.78C121,44.53,121,44.22,121,43.85Zm6.87-17c0,3.08.59,5.34,1.79,6.77a5.52,5.52,0,0,0,4.41,2.14,6.09,6.09,0,0,0,4.76-2.2c1.3-1.46,1.94-3.64,1.94-6.52s-.62-5.24-1.86-6.7a5.89,5.89,0,0,0-4.7-2.19,5.67,5.67,0,0,0-4.55,2.15C128.49,21.7,127.9,23.88,127.9,26.82Z"/><path class="cls-2" d="M158.89,21.76l-7-1.26A10.88,10.88,0,0,1,156,14.27c1.91-1.35,4.76-2,8.53-2q5.15,0,7.66,1.22a7.69,7.69,0,0,1,3.54,3.09q1,1.88,1,6.88l-.08,9A30.68,30.68,0,0,0,177,38a16.67,16.67,0,0,0,1.38,3.9h-7.6c-.2-.51-.45-1.27-.74-2.27q-.2-.68-.27-.9a14,14,0,0,1-4.21,2.87,12.05,12.05,0,0,1-4.79,1,9.88,9.88,0,0,1-7.07-2.44A8.09,8.09,0,0,1,151.13,34a8.31,8.31,0,0,1,1.17-4.39,7.75,7.75,0,0,1,3.3-2.95,25.88,25.88,0,0,1,6.11-1.79A42.83,42.83,0,0,0,169.18,23v-.76a4,4,0,0,0-1.1-3.16c-.73-.63-2.1-.95-4.13-.95a5.51,5.51,0,0,0-3.2.81A5.69,5.69,0,0,0,158.89,21.76ZM169.18,28c-1,.32-2.55.72-4.68,1.17a14.06,14.06,0,0,0-4.18,1.34,3.19,3.19,0,0,0-1.51,2.71A3.77,3.77,0,0,0,160,36a4.2,4.2,0,0,0,3.06,1.17,6.64,6.64,0,0,0,4-1.36,4.89,4.89,0,0,0,1.84-2.55,15.12,15.12,0,0,0,.3-3.74Z"/><path class="cls-3" d="M178.41,41.94V36l10.88-12.49c1.79-2.05,3.11-3.49,4-4.35-.89.05-2.06.09-3.52.11l-10.26.05V12.9h24v5.44l-11.1,12.8-3.91,4.24c2.13-.13,3.45-.19,4-.19h11.9v6.75Z"/><path class="cls-4" d="M204.92,27a15.7,15.7,0,0,1,1.89-7.41,12.93,12.93,0,0,1,5.34-5.47,15.86,15.86,0,0,1,7.73-1.89,14.52,14.52,0,0,1,10.8,4.28,14.83,14.83,0,0,1,4.21,10.82,15,15,0,0,1-4.25,10.92,14.4,14.4,0,0,1-10.71,4.34,16.75,16.75,0,0,1-7.61-1.81,12.27,12.27,0,0,1-5.51-5.29A17.58,17.58,0,0,1,204.92,27Zm7.87.41q0,4.32,2.06,6.62A6.69,6.69,0,0,0,225,34c1.36-1.53,2-3.76,2-6.67a9.59,9.59,0,0,0-2-6.57,6.71,6.71,0,0,0-10.1,0C213.48,22.34,212.79,24.54,212.79,27.42Z"/><path class="cls-1" d="M264.52,41.94h-7.69V27.12a22.79,22.79,0,0,0-.49-6.08,4.28,4.28,0,0,0-1.6-2.15,4.56,4.56,0,0,0-2.66-.77,6.19,6.19,0,0,0-3.59,1.1,5.51,5.51,0,0,0-2.17,2.9,25.05,25.05,0,0,0-.59,6.67V41.94h-7.68v-29h7.14v4.27a11.63,11.63,0,0,1,9.57-4.93,11.51,11.51,0,0,1,4.64.92,7.74,7.74,0,0,1,3.19,2.34,8.41,8.41,0,0,1,1.5,3.23,23.37,23.37,0,0,1,.43,5.16Z"/></svg>